<svg width="24" height="29" viewBox="0 0 24 29" fill="none" xmlns="http://www.w3.org/2000/svg">
<path d="M1.19245 0.174556C1.70073 -0.0269261 2.21553 -0.0537903 2.74336 0.100679C2.89324 0.181272 3.04963 0.261865 3.19951 0.342458C3.55791 0.590953 3.90328 0.846164 4.30078 1.02078L4.30078 1.01407C4.33337 1.06779 4.37898 1.08123 4.43763 1.08123L4.43111 1.07451C4.45718 1.09466 4.47673 1.12152 4.50279 1.14167C5.46071 1.7797 6.43817 2.38414 7.42867 2.96844C8.46478 3.63333 9.49438 4.29823 10.5566 4.9161C10.6869 5.00341 10.8237 5.08401 10.9541 5.17132C11.3255 5.43996 11.723 5.68174 12.127 5.90337C13.1696 6.55483 14.2123 7.19957 15.2549 7.85103C16.2715 8.48234 17.288 9.11365 18.3046 9.75168C18.4414 9.83899 18.5783 9.91958 18.7151 10.0069C19.0996 10.3024 19.5297 10.524 19.9402 10.7792C20.2725 10.9874 20.5984 11.2024 20.9307 11.4038C21.641 11.8404 22.3513 12.2769 23.0681 12.7068C23.244 12.8814 23.4265 13.056 23.6024 13.2306C23.9348 13.7142 24.026 14.2649 23.9869 14.8425C23.824 15.6618 23.3157 16.179 22.6185 16.5551C22.2079 16.7767 21.83 17.0588 21.4325 17.3073C21.0154 17.5222 20.6244 17.7707 20.2465 18.0527C20.1227 18.0863 20.0184 18.1468 19.9337 18.2408C18.8715 18.852 17.8289 19.4967 16.8058 20.1817C15.7241 20.8131 14.6684 21.4779 13.6258 22.163C13.2609 22.3577 12.909 22.5727 12.5766 22.8212C12.4137 22.8883 12.2639 22.9823 12.127 23.0965C11.0713 23.7278 10.0222 24.3591 8.99913 25.0442C7.9565 25.6956 6.91387 26.3404 5.87124 26.9918C5.4607 27.2067 5.06972 27.462 4.69177 27.7306C4.53537 27.7776 4.41156 27.8716 4.29426 27.9791C3.84463 28.2545 3.38848 28.5298 2.93885 28.8119C2.35237 29.047 1.77241 29.0805 1.18593 28.8186C0.723262 28.5768 0.39744 28.194 0.149816 27.7306C-0.0130944 27.2 -0.0326436 26.6627 0.130267 26.1255C0.267112 25.6352 0.397441 25.1382 0.534286 24.6479C0.742812 24.0771 0.879657 23.486 1.04257 22.9017C1.34884 21.8272 1.6486 20.7526 1.95487 19.6713C2.10475 19.134 2.26114 18.5967 2.41102 18.0662C2.71729 16.9916 3.01705 15.917 3.32332 14.8357C3.38848 14.6678 3.4341 14.4999 3.38197 14.3119C3.12131 13.4119 2.86717 12.512 2.60651 11.612C2.45663 11.0747 2.30676 10.5375 2.15688 9.99345C2.00048 9.45617 1.85061 8.91888 1.69421 8.3816C1.38142 7.27344 1.06212 6.17201 0.749331 5.06386C0.586421 4.49299 0.42351 3.91541 0.260599 3.34454C0.16937 2.89457 -0.0196067 2.44459 -5.73162e-05 1.9476C0.0781399 1.27599 0.390928 0.738706 0.918759 0.342458C1.00999 0.288729 1.10122 0.235001 1.19245 0.174556ZM7.43518 7.93162C6.80309 7.52866 6.171 7.12569 5.46071 6.669C5.64968 7.30703 5.81911 7.85103 5.98202 8.40175C6.0928 8.97261 6.26874 9.53005 6.4512 10.0808C6.57502 10.6046 6.71186 11.1218 6.89432 11.6255C6.95948 11.8807 7.03117 12.1426 7.08981 12.3978C7.28531 13.2037 7.65023 13.9761 7.57854 14.8357C7.28531 15.9103 6.98555 16.9782 6.69231 18.0527C6.50985 18.5766 6.34694 19.1072 6.24268 19.6579C5.99505 20.4974 5.75394 21.3302 5.49329 22.2033C5.68226 22.1764 5.78001 22.1093 5.87124 22.0287C6.27526 21.8003 6.67928 21.5652 7.05071 21.2899C7.20059 21.2429 7.33092 21.1556 7.4417 21.0414C8.52994 20.4235 9.57909 19.7452 10.6282 19.0736C11.6709 18.4221 12.707 17.7707 13.7496 17.1192C14.1145 16.9244 14.4794 16.7162 14.8118 16.4543C14.9747 16.3939 15.1246 16.2998 15.2549 16.179C16.1085 15.6551 16.9557 15.1313 17.8093 14.6074C17.9853 14.4999 17.9201 14.4328 17.7898 14.3522C17.464 14.1574 17.1381 13.9559 16.8123 13.7612C15.7958 13.1299 14.7792 12.4986 13.7626 11.8605C13.6258 11.7732 13.4889 11.6926 13.3521 11.6053C12.9611 11.3232 12.5506 11.068 12.127 10.8464C11.1039 10.1681 10.0613 9.52333 8.99913 8.90545C8.73195 8.70397 8.45175 8.52935 8.15199 8.3816C7.94347 8.20026 7.70236 8.04579 7.43518 7.93162Z" fill="#009036"/>
</svg>
