<svg width="48" height="54" viewBox="0 0 48 54" fill="none" xmlns="http://www.w3.org/2000/svg">
<g filter="url(#filter0_d_21_366)">
<path d="M5.99012 45.6208C6.83737 45.9397 7.69548 45.9822 8.57531 45.7378C8.82514 45.6102 9.08583 45.4827 9.33566 45.3551C9.93308 44.9619 10.5088 44.558 11.1714 44.2817L11.1714 44.2923C11.2257 44.2073 11.3017 44.186 11.3995 44.186L11.3886 44.1966C11.4321 44.1647 11.4646 44.1222 11.5081 44.0903C13.1048 43.0806 14.7341 42.1241 16.3852 41.1994C18.1123 40.1472 19.8285 39.0949 21.599 38.1171C21.8163 37.9789 22.0444 37.8514 22.2616 37.7132C22.8808 37.2881 23.5434 36.9054 24.2168 36.5547C25.9547 35.5237 27.6927 34.5034 29.4306 33.4724C31.1251 32.4733 32.8196 31.4743 34.5141 30.4645C34.7422 30.3264 34.9703 30.1988 35.1984 30.0607C35.8393 29.593 36.5562 29.2423 37.2405 28.8384C37.7945 28.5089 38.3376 28.1688 38.8916 27.8499C40.0755 27.1591 41.2595 26.4682 42.4543 25.788C42.7476 25.5116 43.0518 25.2353 43.345 24.959C43.899 24.1937 44.0511 23.3222 43.9859 22.4081C43.7144 21.1114 42.8671 20.293 41.7049 19.6978C41.0205 19.3471 40.3905 18.9007 39.7279 18.5074C39.0328 18.1673 38.381 17.7741 37.751 17.3277C37.5447 17.2745 37.3709 17.1789 37.2297 17.0301C35.4591 16.0629 33.7212 15.0425 32.0158 13.9584C30.2127 12.9593 28.453 11.9071 26.7151 10.823C26.1068 10.5148 25.5203 10.1747 24.9663 9.78141C24.6947 9.67512 24.4449 9.52632 24.2168 9.34563C22.4571 8.34655 20.7083 7.34747 19.003 6.26336C17.265 5.23239 15.5271 4.21205 13.7891 3.18108C13.1048 2.84097 12.4531 2.43708 11.8231 2.01194C11.5624 1.93754 11.356 1.78874 11.1605 1.61869C10.411 1.18291 9.65066 0.747143 8.90117 0.300743C7.92358 -0.0712547 6.95685 -0.124397 5.97926 0.290119C5.20804 0.672745 4.66494 1.27857 4.25218 2.01194C3.98062 2.8516 3.94804 3.70188 4.21959 4.55216C4.44769 5.32804 4.66494 6.11456 4.89304 6.89044C5.24063 7.79387 5.46874 8.72918 5.74029 9.65386C6.25081 11.3544 6.75047 13.055 7.26099 14.7662C7.51082 15.6165 7.77151 16.4668 8.02134 17.3064C8.53186 19.007 9.03152 20.7075 9.54204 22.4187C9.65066 22.6845 9.7267 22.9502 9.6398 23.2478C9.20532 24.672 8.78169 26.0962 8.34721 27.5204C8.09738 28.3707 7.84755 29.221 7.59772 30.0819C7.33703 30.9322 7.0872 31.7825 6.8265 32.6328C6.30512 34.3865 5.77288 36.1296 5.25149 37.8833C4.97994 38.7867 4.70839 39.7008 4.43683 40.6042C4.28476 41.3163 3.96976 42.0284 4.00235 42.8149C4.13269 43.8778 4.65408 44.7281 5.53391 45.3551C5.68598 45.4402 5.83805 45.5252 5.99012 45.6208ZM16.3961 33.3449C15.3424 33.9826 14.2888 34.6203 13.1048 35.343C13.4198 34.3333 13.7022 33.4724 13.9738 32.6009C14.1585 31.6975 14.4517 30.8153 14.7559 29.9437C14.9623 29.1147 15.1904 28.2963 15.4945 27.4992C15.6031 27.0953 15.7226 26.6808 15.8204 26.2769C16.1462 25.0015 16.7545 23.7792 16.635 22.4187C16.1462 20.7182 15.6466 19.0282 15.1578 17.3277C14.8536 16.4986 14.5821 15.659 14.4083 14.7874C13.9955 13.4589 13.5936 12.1409 13.1591 10.7592C13.4741 10.8017 13.6371 10.908 13.7891 11.0356C14.4626 11.3969 15.136 11.7689 15.7552 12.2047C16.005 12.2791 16.2223 12.4173 16.4069 12.598C18.2209 13.5758 19.9697 14.6493 21.7185 15.7121C23.4565 16.7431 25.1835 17.7741 26.9215 18.805C27.5298 19.1133 28.138 19.4427 28.692 19.8573C28.9636 19.9529 29.2134 20.1017 29.4306 20.293C30.8536 21.1221 32.2656 21.9511 33.6886 22.7801C33.9819 22.9502 33.8732 23.0565 33.656 23.184C33.1129 23.4922 32.5698 23.8111 32.0267 24.1193C30.3322 25.1184 28.6377 26.1175 26.9432 27.1272C26.7151 27.2654 26.487 27.3929 26.2589 27.5311C25.6072 27.9775 24.9228 28.3814 24.2168 28.7321C22.5114 29.8056 20.7735 30.8259 19.003 31.8037C18.5576 32.1226 18.0906 32.3989 17.5909 32.6328C17.2433 32.9197 16.8414 33.1642 16.3961 33.3449Z" fill="#009136"/>
</g>
<defs>
<filter id="filter0_d_21_366" x="0" y="0" width="48" height="53.8948" filterUnits="userSpaceOnUse" color-interpolation-filters="sRGB">
<feFlood flood-opacity="0" result="BackgroundImageFix"/>
<feColorMatrix in="SourceAlpha" type="matrix" values="0 0 0 0 0 0 0 0 0 0 0 0 0 0 0 0 0 0 127 0" result="hardAlpha"/>
<feOffset dy="4"/>
<feGaussianBlur stdDeviation="2"/>
<feComposite in2="hardAlpha" operator="out"/>
<feColorMatrix type="matrix" values="0 0 0 0 0 0 0 0 0 0 0 0 0 0 0 0 0 0 0.25 0"/>
<feBlend mode="normal" in2="BackgroundImageFix" result="effect1_dropShadow_21_366"/>
<feBlend mode="normal" in="SourceGraphic" in2="effect1_dropShadow_21_366" result="shape"/>
</filter>
</defs>
</svg>
