<svg width="44" height="47" viewBox="0 0 44 47" fill="none" xmlns="http://www.w3.org/2000/svg">
<g filter="url(#filter0_d_21_318)">
<path d="M38.2089 0.230957C37.4464 -0.037883 36.6741 -0.0737284 35.8822 0.132382C35.6574 0.239918 35.4228 0.347454 35.1979 0.454989C34.6602 0.786558 34.1421 1.12709 33.5458 1.36008L33.5458 1.35112C33.4969 1.42281 33.4285 1.44073 33.3405 1.44073L33.3503 1.43177C33.3112 1.45866 33.2818 1.4945 33.2427 1.52139C31.8057 2.37271 30.3393 3.17923 28.8533 3.95887C27.299 4.84604 25.7544 5.73321 24.1609 6.55765C23.9654 6.67414 23.7601 6.78168 23.5645 6.89818C23.0073 7.25663 22.411 7.57924 21.8049 7.87496C20.2407 8.74421 18.6766 9.6045 17.1124 10.4737C15.5874 11.3161 14.0623 12.1585 12.5373 13.0098C12.332 13.1263 12.1267 13.2338 11.9214 13.3503C11.3446 13.7446 10.6994 14.0403 10.0835 14.3809C9.58497 14.6587 9.09617 14.9454 8.5976 15.2143C7.53202 15.7968 6.46644 16.3793 5.39109 16.9528C5.12714 17.1858 4.85342 17.4188 4.58947 17.6518C4.0909 18.297 3.95403 19.0318 4.01269 19.8025C4.25709 20.8958 5.01961 21.5858 6.06563 22.0876C6.68152 22.3833 7.24852 22.7597 7.84485 23.0913C8.47051 23.378 9.05707 23.7096 9.62407 24.086C9.80981 24.1308 9.96623 24.2114 10.0933 24.3369C11.6868 25.1524 13.2509 26.0127 14.7858 26.9267C16.4086 27.7691 17.9923 28.6563 19.5564 29.5703C20.1039 29.8302 20.6318 30.117 21.1303 30.4485C21.3747 30.5381 21.5996 30.6636 21.8049 30.8159C23.3886 31.6583 24.9625 32.5007 26.4973 33.4147C28.0615 34.284 29.6256 35.1443 31.1898 36.0135C31.8057 36.3003 32.3922 36.6408 32.9592 36.9993C33.1938 37.062 33.3796 37.1874 33.5555 37.3308C34.2301 37.6982 34.9144 38.0657 35.5889 38.442C36.4688 38.7557 37.3388 38.8005 38.2187 38.451C38.9128 38.1284 39.4016 37.6176 39.773 36.9993C40.0174 36.2913 40.0468 35.5744 39.8024 34.8575C39.5971 34.2033 39.4016 33.5402 39.1963 32.886C38.8834 32.1243 38.6781 31.3357 38.4337 30.5561C37.9743 29.1223 37.5246 27.6884 37.0651 26.2457C36.8403 25.5288 36.6056 24.8119 36.3808 24.1039C35.9213 22.6701 35.4716 21.2363 35.0122 19.7935C34.9144 19.5695 34.846 19.3455 34.9242 19.0945C35.3152 17.8937 35.6965 16.6929 36.0875 15.4921C36.3124 14.7752 36.5372 14.0583 36.7621 13.3324C36.9967 12.6155 37.2215 11.8986 37.4561 11.1817C37.9254 9.70307 38.4044 8.23342 38.8737 6.7548C39.1181 5.99309 39.3625 5.22241 39.6069 4.4607C39.7437 3.86029 40.0272 3.25988 39.9979 2.59675C39.8806 1.70061 39.4113 0.983708 38.6195 0.45499C38.4826 0.383299 38.3458 0.311609 38.2089 0.230957ZM28.8436 10.5813C29.7918 10.0436 30.7401 9.50592 31.8057 8.89655C31.5222 9.74788 31.268 10.4737 31.0236 11.2086C30.8574 11.9703 30.5934 12.7141 30.3197 13.4489C30.134 14.1479 29.9287 14.8379 29.655 15.51C29.5572 15.8505 29.4497 16.2 29.3617 16.5406C29.0684 17.6159 28.5209 18.6465 28.6285 19.7935C29.0684 21.2273 29.5181 22.6522 29.958 24.086C30.2317 24.785 30.4761 25.4929 30.6325 26.2277C31.004 27.3479 31.3657 28.4591 31.7568 29.6241C31.4733 29.5882 31.3266 29.4986 31.1898 29.3911C30.5837 29.0864 29.9776 28.7728 29.4203 28.4053C29.1955 28.3426 29 28.2261 28.8338 28.0738C27.2012 27.2493 25.6273 26.3442 24.0533 25.4481C22.4892 24.5789 20.9348 23.7096 19.3707 22.8404C18.8232 22.5805 18.2758 22.3027 17.7772 21.9532C17.5328 21.8725 17.308 21.7471 17.1124 21.5858C15.8318 20.8868 14.5609 20.1878 13.2803 19.4888C13.0163 19.3455 13.1141 19.2558 13.3096 19.1483C13.7984 18.8884 14.2872 18.6196 14.776 18.3597C16.301 17.5173 17.8261 16.675 19.3511 15.8237C19.5564 15.7072 19.7617 15.5996 19.967 15.4831C20.5536 15.1067 21.1694 14.7662 21.8049 14.4705C23.3397 13.5654 24.9039 12.7051 26.4973 11.8807C26.8981 11.6118 27.3185 11.3788 27.7682 11.1817C28.081 10.9397 28.4427 10.7336 28.8436 10.5813Z" fill="#009136"/>
</g>
<defs>
<filter id="filter0_d_21_318" x="0" y="0" width="44" height="46.6956" filterUnits="userSpaceOnUse" color-interpolation-filters="sRGB">
<feFlood flood-opacity="0" result="BackgroundImageFix"/>
<feColorMatrix in="SourceAlpha" type="matrix" values="0 0 0 0 0 0 0 0 0 0 0 0 0 0 0 0 0 0 127 0" result="hardAlpha"/>
<feOffset dy="4"/>
<feGaussianBlur stdDeviation="2"/>
<feComposite in2="hardAlpha" operator="out"/>
<feColorMatrix type="matrix" values="0 0 0 0 0 0 0 0 0 0 0 0 0 0 0 0 0 0 0.25 0"/>
<feBlend mode="normal" in2="BackgroundImageFix" result="effect1_dropShadow_21_318"/>
<feBlend mode="normal" in="SourceGraphic" in2="effect1_dropShadow_21_318" result="shape"/>
</filter>
</defs>
</svg>
