<svg width="133" height="177" viewBox="0 0 133 177" fill="none" xmlns="http://www.w3.org/2000/svg">
<g clip-path="url(#clip0_355_790)">
<path d="M46.4436 0.185913C47.3818 0.419499 48.3201 0.653086 49.4929 0.886672C58.4063 3.45612 64.0359 12.3324 62.863 21.6759C61.4557 31.0193 53.715 37.7933 44.0979 37.7933C34.7154 37.7933 26.7402 31.0193 25.3328 21.9094C23.6909 11.6316 30.4932 2.28819 40.814 0.419499C41.0486 0.419499 41.5177 0.185913 41.7523 0.185913C43.1597 0.185913 44.8016 0.185913 46.4436 0.185913Z" fill="#004800"/>
<path d="M98.9859 154.119C100.159 157.857 101.566 161.36 102.739 165.098C104.381 170.47 101.801 175.376 96.4057 176.777C92.1835 177.711 87.9614 175.376 86.3194 170.704C84.4429 165.565 82.5664 160.193 80.9245 154.82C80.4553 153.419 79.9862 153.185 78.5788 152.951C71.7765 152.484 65.2087 151.55 58.6409 149.681C57.4681 149.214 56.2952 148.747 55.1224 148.28C49.7274 145.71 47.1472 141.038 48.7892 134.965C51.3694 125.622 54.1842 116.278 57.2335 107.168C58.4063 103.898 58.6409 101.095 56.9989 97.5914C51.8385 86.8464 47.3818 75.6343 42.6905 64.8893C42.456 64.1886 42.2214 63.7214 41.7523 63.0206C40.1103 63.2542 38.7029 63.7214 37.061 63.955C28.6167 65.1229 21.1106 62.7871 14.3083 58.3489C9.14788 55.0787 5.16029 50.8742 1.64183 45.7353C-0.938372 41.9979 -0.469244 37.7933 3.04922 35.2239C6.33311 32.6544 11.0244 33.5888 13.6046 37.0926C16.4194 41.0635 19.7033 44.5673 24.16 46.9032C27.913 48.7719 31.9006 49.7062 36.1227 49.0055C38.2338 48.5383 39.8758 47.3704 41.5177 45.7353C43.3942 43.633 45.2707 41.2971 47.3818 39.4284C52.3077 35.4575 58.1717 34.9903 64.0359 35.691C78.5788 37.5597 92.6527 41.5307 105.319 49.0055C110.245 51.8085 114.702 55.5459 119.393 59.0497C122.677 61.8527 122.911 66.5244 120.097 69.5611C117.282 72.5977 112.825 72.8313 109.776 70.0282C101.566 62.5535 91.949 57.6482 81.3936 54.3779C81.159 54.3779 80.9245 54.1444 80.4553 54.1444C80.6899 54.8451 80.9245 55.3123 81.159 56.0131C84.6775 64.1886 87.9614 72.3641 91.7144 80.306C94.2946 85.4449 94.7637 90.5838 94.2946 96.1899C93.3563 107.869 92.6527 119.549 91.949 131.228C91.949 131.695 91.949 132.162 91.949 132.863C92.1835 135.9 92.8872 136.834 95.9366 136.834C98.5168 136.834 100.862 136.834 103.443 137.067C107.665 137.535 110.949 141.038 111.183 145.243C111.418 149.448 108.368 153.419 104.146 154.119C102.27 153.886 100.862 153.886 98.9859 154.119ZM66.3815 134.031C69.1963 134.498 71.5419 134.732 74.1221 135.199C74.5912 126.323 75.2949 117.446 75.764 108.804C75.5295 108.804 75.5295 108.804 75.2949 108.804C72.4801 116.979 69.4308 125.388 66.3815 134.031Z" fill="#004800"/>
<path d="M69.8999 18.8728C69.8999 18.4056 69.8999 17.9384 69.8999 17.2377C80.9244 17.2377 91.9489 17.2377 102.973 17.2377C102.973 17.7048 102.973 18.172 102.973 18.8728C91.9489 18.8728 81.159 18.8728 69.8999 18.8728Z" fill="#004800"/>
<path d="M102.973 26.3476C95.702 26.3476 88.665 26.3476 81.3936 26.3476C81.3936 25.8805 81.3936 25.1797 81.3936 24.7125C88.665 24.7125 95.702 24.7125 102.973 24.7125C102.739 25.1797 102.973 25.6469 102.973 26.3476Z" fill="#004800"/>
<path d="M72.9492 33.5887C72.9492 33.1215 72.9492 32.6544 72.9492 31.9536C80.2207 31.9536 87.2576 31.9536 94.5291 31.9536C94.5291 32.4208 94.5291 32.888 94.7637 33.5887C87.2576 33.5887 80.2207 33.5887 72.9492 33.5887Z" fill="#004800"/>
<path d="M50.6657 0.185913C51.604 0.419499 52.5422 0.653086 53.7151 0.886672C62.6285 3.45612 68.258 12.3324 67.0852 21.6759C65.6778 31.0193 57.9372 37.7933 48.3201 37.7933C38.9375 37.7933 30.9624 31.0193 29.555 21.9094C27.913 11.6316 34.7154 2.28819 45.0362 0.419499C45.2708 0.419499 45.7399 0.185913 45.9744 0.185913C47.3818 0.185913 49.0238 0.185913 50.6657 0.185913Z" fill="#004800"/>
<path d="M103.208 154.119C104.381 157.857 105.788 161.36 106.961 165.098C108.603 170.47 106.023 175.376 100.628 176.777C96.4057 177.711 92.1835 175.376 90.5416 170.704C88.6651 165.565 86.7886 160.193 85.1466 154.82C84.6775 153.419 84.2084 153.185 82.801 152.951C75.9986 152.484 69.4308 151.55 62.863 149.681C61.6902 149.214 60.5174 148.747 59.3446 148.28C53.9496 145.71 51.3694 141.038 53.0114 134.965C55.5916 125.622 58.4063 116.278 61.4557 107.168C62.6285 103.898 62.863 101.095 61.2211 97.5914C56.0607 86.8464 51.604 75.6343 46.9127 64.8893C46.6781 64.1886 46.4436 63.7214 45.9744 63.0206C44.3325 63.2542 42.9251 63.7214 41.2832 63.955C32.8389 65.1229 25.3328 62.7871 18.5305 58.3489C13.37 55.0787 9.38246 50.8742 5.864 45.7353C3.2838 41.9979 3.75292 37.7933 7.27138 35.2239C10.5553 32.6544 15.2466 33.5888 17.8268 37.0926C20.6415 41.2971 24.16 44.8009 28.6167 47.1368C32.3697 49.0055 36.3573 49.9398 40.5795 49.239C42.6905 48.7719 44.3325 47.6039 45.9744 45.9688C47.8509 43.8666 49.7275 41.5307 51.8385 39.662C56.7644 35.691 62.6285 35.2239 68.4926 35.9246C83.0355 37.7933 97.1094 41.7643 109.776 49.239C114.702 52.0421 119.158 55.7795 123.85 59.2833C127.134 62.0863 127.368 66.758 124.553 69.7946C121.739 72.8313 117.282 73.0648 114.233 70.2618C106.023 62.7871 96.4057 57.8817 85.8503 54.6115C85.6157 54.6115 85.3812 54.3779 84.9121 54.3779C85.1466 55.0787 85.3812 55.5459 85.6157 56.2466C89.1342 64.4222 92.4181 72.5977 96.1711 80.5396C98.7513 85.6785 99.2205 90.8174 98.7513 96.4235C97.8131 108.103 97.1094 119.782 96.4057 131.461C96.4057 131.929 96.4057 132.396 96.4057 133.097C96.6402 136.133 97.3439 137.067 100.393 137.067C102.973 137.067 105.319 137.067 107.899 137.301C112.121 137.768 115.405 141.272 115.64 145.477C115.874 149.681 112.825 153.652 108.603 154.353C106.492 153.886 105.085 153.886 103.208 154.119ZM70.6036 134.031C73.4184 134.498 75.7641 134.732 78.3443 135.199C78.8134 126.323 79.5171 117.446 79.9862 108.804C79.7516 108.804 79.7516 108.804 79.5171 108.804C76.7023 116.979 73.653 125.388 70.6036 134.031Z" fill="#004800"/>
<path d="M74.1221 18.8728C74.1221 18.4056 74.1221 17.9384 74.1221 17.2377C85.1466 17.2377 96.1711 17.2377 107.196 17.2377C107.196 17.7048 107.196 18.172 107.196 18.8728C96.1711 18.8728 85.3811 18.8728 74.1221 18.8728Z" fill="#004800"/>
<path d="M107.196 26.3476C99.9241 26.3476 92.8872 26.3476 85.6157 26.3476C85.6157 25.8805 85.6157 25.1797 85.6157 24.7125C92.8872 24.7125 99.9241 24.7125 107.196 24.7125C106.961 25.1797 107.196 25.6469 107.196 26.3476Z" fill="#004800"/>
<path d="M77.1714 33.5887C77.1714 33.1215 77.1714 32.6544 77.1714 31.9536C84.4429 31.9536 91.4798 31.9536 98.7513 31.9536C98.7513 32.4208 98.7513 32.888 98.9858 33.5887C91.4798 33.5887 84.4429 33.5887 77.1714 33.5887Z" fill="#004800"/>
<path d="M56.53 0.185913C57.4682 0.419499 58.4065 0.653086 59.5793 0.886672C68.4927 3.45612 74.1223 12.3324 72.9495 21.6759C71.5421 31.0193 63.8015 37.7933 54.1843 37.7933C44.8018 37.7933 36.8266 31.0193 35.4192 21.9094C33.7773 11.6316 40.5796 2.28819 50.9005 0.419499C51.135 0.419499 51.3696 0.185913 51.6041 0.185913C53.2461 0.185913 54.888 0.185913 56.53 0.185913Z" fill="#009A3A"/>
<path d="M109.072 154.119C110.245 157.857 111.652 161.36 112.825 165.098C114.467 170.47 111.887 175.376 106.492 176.777C102.27 177.711 98.0478 175.376 96.4058 170.704C94.5293 165.565 92.6528 160.193 91.0109 154.82C90.5417 153.419 90.0726 153.185 88.6652 152.951C81.8629 152.484 75.2951 151.55 68.7273 149.681C67.5545 149.214 66.3817 148.747 65.2088 148.28C59.8139 145.71 57.2337 141.038 58.8756 134.965C61.4558 125.622 64.2706 116.278 67.3199 107.168C68.4927 103.898 68.7273 101.095 67.0853 97.5914C61.9249 86.8464 57.4682 75.6343 52.7769 64.8893C52.5424 64.1886 52.3078 63.7214 51.8387 63.0206C50.1967 63.2542 48.7894 63.7214 47.1474 63.955C38.7031 65.1229 31.1971 62.7871 24.3947 58.3489C19.2343 55.0787 15.2467 50.8742 11.7283 45.7353C9.14805 41.9979 9.61718 37.7933 13.1356 35.2239C16.4195 32.6544 21.1108 33.5888 23.691 37.0926C26.5058 41.2971 30.0242 44.8009 34.481 47.1368C38.234 49.0055 42.2216 49.9398 46.4437 49.239C48.5548 48.7719 50.1967 47.6039 51.8387 45.9688C53.7152 43.8666 55.5917 41.5307 57.7028 39.662C62.6286 35.691 68.4927 35.2239 74.3568 35.9246C88.8998 37.7933 102.974 41.7643 115.64 49.239C120.566 52.0421 125.023 55.7795 129.714 59.2833C132.998 62.0863 133.232 66.758 130.418 69.7946C127.603 72.8313 123.146 73.0648 120.097 70.2618C111.887 62.7871 102.27 57.8817 91.7146 54.6115C91.48 54.6115 91.2454 54.3779 90.7763 54.3779C91.0109 55.0787 91.2454 55.5459 91.48 56.2466C94.9985 64.4222 98.2824 72.5977 102.035 80.5396C104.616 85.6785 105.085 90.8174 104.616 96.4235C103.677 108.103 102.974 119.782 102.27 131.461C102.27 131.929 102.27 132.396 102.27 133.097C102.505 136.133 103.208 137.067 106.258 137.067C108.838 137.067 111.183 137.067 113.764 137.301C117.986 137.768 121.27 141.272 121.504 145.477C121.739 149.681 118.689 153.652 114.467 154.353C112.591 153.886 110.949 153.886 109.072 154.119ZM76.7025 134.031C79.5172 134.498 81.8629 134.732 84.4431 135.199C84.9122 126.323 85.6159 117.446 86.085 108.804C85.8505 108.804 85.8505 108.804 85.6159 108.804C82.5666 116.979 79.5172 125.388 76.7025 134.031Z" fill="#009A3A"/>
<path d="M79.9863 18.8728C79.9863 18.4056 79.9863 17.9384 79.9863 17.2377C91.0108 17.2377 102.035 17.2377 113.06 17.2377C113.06 17.7048 113.06 18.172 113.06 18.8728C102.27 18.8728 91.2454 18.8728 79.9863 18.8728Z" fill="#009A3A"/>
<path d="M113.06 26.3476C105.788 26.3476 98.7515 26.3476 91.48 26.3476C91.48 25.8805 91.48 25.1797 91.48 24.7125C98.7515 24.7125 105.788 24.7125 113.06 24.7125C113.06 25.1797 113.06 25.6469 113.06 26.3476Z" fill="#009A3A"/>
<path d="M83.0356 33.5887C83.0356 33.1215 83.0356 32.6544 83.0356 31.9536C90.3071 31.9536 97.344 31.9536 104.616 31.9536C104.616 32.4208 104.616 32.888 104.85 33.5887C97.344 33.5887 90.3071 33.5887 83.0356 33.5887Z" fill="#009A3A"/>
</g>
<defs>
<clipPath id="clip0_355_790">
<rect width="132.06" height="176.591" fill="white" transform="translate(0 0.185913)"/>
</clipPath>
</defs>
</svg>
