<svg width="189" height="216" viewBox="0 0 189 216" fill="none" xmlns="http://www.w3.org/2000/svg">
<g clip-path="url(#clip0_355_706)">
<path d="M87.1904 74.738V113.908C87.0582 113.908 86.9701 113.908 86.8379 113.908C84.3266 113.778 82.6084 111.865 82.6084 109.039C82.6084 103.04 82.6084 97.0838 81.1985 91.2147C80.7139 89.3453 80.0971 87.4759 79.4802 85.65C78.7753 85.8239 79.0397 85.737 78.2907 85.9109C79.1718 93.3015 80.053 100.692 80.9782 108.083C81.4629 111.822 80.6698 115.3 79.0397 118.647C78.5991 119.603 78.2466 120.647 78.2026 121.69C77.4536 136.95 76.7487 152.253 76.0437 167.512C75.8235 172.034 71.8142 174.468 68.1574 172.294C66.4832 171.294 65.6902 169.816 65.602 167.903C65.1615 158.122 64.6768 148.383 64.2363 138.602C64.1922 137.645 64.1041 136.689 63.7516 135.776C63.6194 138.732 63.4432 141.688 63.311 144.645C62.9586 152.253 62.6061 159.861 62.2537 167.469C62.0774 170.86 60.0508 173.033 57.0108 173.077C54.0589 173.12 51.9441 170.816 51.7679 167.469C51.063 152.644 50.4021 137.819 49.6091 123.038C49.5209 121.342 49.0804 119.647 48.3314 118.125C46.1285 113.648 46.481 109.039 47.0978 104.344C47.9349 97.9533 48.6839 91.5191 49.4769 85.1283C48.8601 84.9544 49.0363 84.9979 48.4195 84.8675C48.023 85.8239 47.6265 86.7804 47.3181 87.7803C45.0711 94.6492 44.7627 101.736 44.9389 108.865C44.983 111.517 44.0137 113.213 41.8108 113.778C38.11 114.734 34.3651 115.256 30.6642 113.778C30.1355 113.561 29.6068 113.43 28.946 113.213C28.7257 113.169 28.5054 113.3 28.5054 113.517C28.5054 113.865 28.5054 114.169 28.5054 114.474C28.7697 119.473 29.1662 124.473 29.2544 129.472C29.2984 131.472 28.6375 133.472 28.2851 135.472C28.197 136.037 27.9767 136.558 27.9326 137.124C27.448 146.818 26.9634 156.557 26.5228 166.251C26.4787 166.817 26.4787 167.382 26.3906 167.947C26.0822 170.034 24.6723 171.208 22.8219 171.121C21.0596 171.034 19.7819 169.686 19.6498 167.686C19.4295 163.86 19.2092 160.078 18.9889 156.252C18.8127 152.774 18.6364 149.34 18.284 145.819C18.1959 146.818 18.0196 147.818 17.9756 148.818C17.7112 154.557 17.4469 160.295 17.1825 166.034C17.1385 166.73 17.0944 167.382 17.0063 168.077C16.7419 169.903 15.3762 171.121 13.6579 171.121C11.8956 171.121 10.4417 169.773 10.3095 167.86C10.0452 164.339 9.86893 160.817 9.6927 157.296C9.34023 150.47 8.98777 143.688 8.63531 136.863C8.63531 136.645 8.67937 136.385 8.59125 136.167C6.56459 131.385 7.84227 126.429 7.88633 121.516C7.88633 120.995 7.88633 120.516 7.88633 119.995C7.7101 119.951 7.53387 119.951 7.35763 119.908C6.82894 123.168 6.30025 126.429 5.81561 129.69C5.46315 132.037 3.87707 133.385 1.98258 132.689C1.2336 132.428 0.660848 131.689 0.0440386 131.168C-0.044077 131.124 -0.0881348 130.994 -0.0881348 130.907V124.255V124.212C0.61679 120.908 1.01331 117.473 2.0707 114.3C4.22953 107.778 8.15067 102.605 14.9356 100.04C18.3721 98.7358 21.5442 99.1705 24.4961 101.475C27.0074 103.388 29.6509 105.127 32.2943 106.822C33.1314 107.344 34.1007 107.692 35.0259 108.039C35.2462 108.126 35.4665 107.952 35.4665 107.735C35.4665 102.996 35.2903 98.388 35.5106 93.8232C35.9511 84.5197 38.4624 75.8683 44.5865 68.5646C49.1685 63.1303 54.896 59.3915 62.2096 58.8698C70.2281 58.2612 76.7046 61.7826 81.8594 67.4778C83.886 69.608 85.5162 72.173 87.1904 74.738Z" fill="#009A3A"/>
<path d="M78.8636 43.0017C78.8636 51.1314 72.1227 57.7395 63.7517 57.7395C55.6451 57.7395 48.8602 51.001 48.8161 42.9148C48.7721 34.7851 55.5129 28.177 63.8839 28.1335C72.1668 28.09 78.8636 34.7416 78.8636 43.0017Z" fill="#009A3A"/>
<path d="M28.1529 88.215C28.0648 93.6493 23.659 97.8663 18.1518 97.8228C13.0411 97.7793 8.54719 93.2145 8.63531 88.0846C8.72342 82.6938 13.2173 78.3463 18.6364 78.4767C23.9674 78.6072 28.2851 82.9981 28.1529 88.215Z" fill="#009A3A"/>
<path d="M186.981 132.559C185.351 133.168 184.073 132.515 183.236 130.994C183.192 130.95 183.148 130.95 183.06 130.95C182.884 130.95 182.752 130.82 182.752 130.603C182.752 129.298 182.84 127.994 182.619 126.733C182.135 123.821 181.474 120.908 180.857 118.039C180.813 117.865 180.637 117.734 180.461 117.778C180.284 117.821 180.196 117.952 180.196 118.125C180.284 118.778 180.328 119.473 180.461 120.125C181.21 123.734 182.003 127.342 182.752 130.907C183.721 135.08 184.734 139.297 185.659 143.514C185.968 144.993 185.175 145.862 183.545 145.949C182.443 145.993 181.342 145.949 180.064 145.949C179.888 145.949 179.756 146.079 179.712 146.253C179.535 148.949 179.403 151.557 179.227 154.122C179.007 158.513 178.786 162.861 178.522 167.251C178.39 169.643 177.156 170.99 175.13 170.99C173.103 170.99 171.825 169.686 171.693 167.295C171.385 161.469 171.12 155.6 170.856 149.731C170.812 148.644 170.724 147.514 170.283 146.427C170.019 150.862 169.799 155.296 169.534 159.73C169.402 162.165 169.27 164.6 169.138 167.034C169.006 169.469 167.728 170.947 165.745 170.947C163.763 170.947 162.397 169.469 162.265 167.034C162 161.643 161.78 156.252 161.516 150.862C161.428 149.383 161.34 147.862 161.251 146.166C161.251 145.993 161.075 145.862 160.899 145.862C159.842 145.862 158.784 145.862 157.771 145.862C154.951 145.819 154.334 145.036 154.995 142.384C156.713 135.167 158.564 127.951 160.106 120.647C160.635 118.256 160.547 115.778 160.679 113.213C160.679 112.995 160.458 112.822 160.238 112.865C158.211 113.43 156.493 114.126 154.731 114.213C152.748 114.343 150.678 113.865 148.651 113.648C148.431 113.648 148.21 113.474 147.99 113.43C143.584 112.126 143.188 111.735 142.747 107.126C142.263 101.779 141.381 96.5187 139.619 91.4757C139.399 90.867 139.134 90.2584 138.87 89.6498C138.694 89.6932 138.562 89.6932 138.385 89.7367C138.694 91.6061 138.914 93.432 139.311 95.3014C141.646 106.692 144.025 118.125 146.404 129.516C147.153 133.124 146.14 134.428 142.439 134.428C140.985 134.428 139.531 134.428 137.989 134.428C137.813 134.428 137.636 134.559 137.636 134.733C137.46 137.515 137.328 140.123 137.196 142.732C136.755 150.905 136.359 159.078 135.874 167.251C135.698 170.556 133.627 172.729 130.675 172.729C127.679 172.773 125.521 170.599 125.344 167.208C124.816 156.861 124.287 146.558 123.758 136.211C123.714 135.689 123.67 135.124 123.626 134.602C123.494 134.602 123.318 134.602 123.186 134.559C123.097 135.167 123.009 135.776 123.009 136.428C122.437 146.775 121.908 157.078 121.335 167.425C121.159 170.686 118.912 172.86 116.004 172.773C113.096 172.686 111.026 170.469 110.849 167.251C110.321 156.861 109.792 146.471 109.263 136.08C109.219 135.646 109.175 135.254 109.131 134.733C109.131 134.559 108.955 134.428 108.779 134.428C106.972 134.428 105.254 134.428 103.536 134.428C100.716 134.385 99.5705 132.994 100.143 130.255C102.743 117.821 105.386 105.344 107.986 92.9103C108.206 91.8235 108.206 90.6932 108.294 89.6063C108.294 89.4324 108.206 89.302 108.03 89.2585L107.897 89.215C107.721 89.1715 107.545 89.302 107.501 89.4324C106.576 92.7799 105.474 96.1274 104.769 99.5184C104.108 102.736 103.756 106.04 103.36 109.3C103.051 111.996 101.289 113.821 98.9097 113.865V79.9985L100.892 77.0857C100.936 77.0422 100.98 76.9987 101.024 76.9553C101.157 76.7379 101.333 76.4336 101.553 76.1292V76.0858C101.685 75.9119 101.773 75.6945 101.906 75.5206C102.434 74.6946 103.007 73.8686 103.58 73.086C106.796 68.7821 110.805 65.2607 115.696 62.7392C121.952 59.5221 127.988 60.6524 133.715 64.1303C141.91 69.1734 146.536 76.8248 149.268 85.7371C151.162 91.9104 151.911 98.3012 151.999 104.735C151.999 105.692 151.999 106.648 151.999 107.909C151.999 108.126 152.264 108.3 152.484 108.213C153.938 107.605 155.216 107.17 156.273 106.474C158.74 104.909 161.119 103.214 163.41 101.431C168.08 97.7795 172.09 97.6056 176.98 100.91C183.545 105.344 186.673 111.822 187.95 119.343C188.435 122.429 188.479 125.56 188.699 128.69C188.964 130.385 188.744 131.95 186.981 132.559Z" fill="#004800"/>
<path d="M123.626 60.3915C115.431 60.4785 108.47 53.6965 108.382 45.6537C108.338 37.2197 115.079 30.4812 123.626 30.4377C131.909 30.3942 138.65 37.0893 138.738 45.4364C138.826 53.5661 131.997 60.3046 123.626 60.3915Z" fill="#004800"/>
<path d="M180.196 88.2151C180.152 93.5624 175.658 97.8664 170.195 97.8229C165.129 97.7794 160.591 93.2146 160.679 88.2585C160.811 82.7373 165.04 78.4768 170.548 78.4768C175.791 78.4768 180.24 82.9112 180.196 88.2151Z" fill="#004800"/>
<path d="M92.4773 0.223022V215.204" stroke="#004800" stroke-miterlimit="10"/>
</g>
<defs>
<clipPath id="clip0_355_706">
<rect width="188.876" height="214.981" fill="white" transform="translate(0 0.223022)"/>
</clipPath>
</defs>
</svg>
