<svg width="175" height="187" viewBox="0 0 175 187" fill="none" xmlns="http://www.w3.org/2000/svg">
<g clip-path="url(#clip0_355_738)">
<path d="M65.9499 0C66.9601 0.289848 68.0184 0.531387 69.0285 0.869543C77.2542 3.57479 82.257 11.7388 81.0063 20.3376C79.8037 28.7432 72.4439 35.2648 63.9777 35.4097C55.3672 35.6029 47.8631 29.5161 46.2275 21.0139C44.3996 11.5939 50.605 2.31878 60.0813 0.338155C60.4661 0.24154 60.851 0.0966159 61.2839 0C62.8232 0 64.3625 0 65.9499 0Z" fill="#009A3A"/>
<path d="M49.2099 160.672C46.8047 161.059 44.7844 161.397 42.4754 161.783C42.4273 161.01 42.3792 160.382 42.3792 159.754C42.3792 151.252 42.3311 142.75 42.4273 134.248C42.4273 133.233 42.9565 132.074 43.6299 131.301C45.3616 129.224 47.3339 127.388 49.0175 125.069C46.9009 125.649 44.7844 126.229 42.3792 126.905C42.3792 126.084 42.3792 125.456 42.3792 124.828C42.3792 114.345 42.3792 103.862 42.3792 93.3793C42.3792 92.2199 42.6197 91.3503 43.5337 90.5774C44.3034 89.9494 44.8325 88.9832 45.3135 88.1137C50.1239 79.5149 54.8861 70.8678 59.6483 62.269C62.5345 57.0517 61.2357 52.8006 55.9925 50.0954C55.6076 49.9021 55.2228 49.2741 55.1747 48.791C54.838 45.9892 54.6456 43.1873 54.357 40.1922C54.838 40.1922 55.4633 40.1922 56.1368 40.1922C56.9545 40.1922 57.8204 40.1439 58.6382 40.1922C69.2209 40.5787 79.7074 40.3855 89.8572 36.8107C89.9534 36.7624 90.0978 36.7624 90.194 36.7141C92.551 35.9411 94.2827 36.3276 96.3512 38.2599C103.47 45.1196 114.871 44.5883 121.75 37.3904C122.76 36.3276 123.626 36.1827 125.021 36.3759C128.436 36.8107 130.505 38.2116 130.505 41.9313C130.505 43.0424 130.986 44.1535 131.274 45.6027C132.14 44.54 132.814 43.6704 133.487 42.8009C134.16 41.9313 134.786 41.1101 135.555 40.0956C140.847 42.7042 145.705 45.8443 149.457 50.3852C151.43 52.7523 150.804 56.5203 148.495 58.5492C146.138 60.6265 142.723 60.6265 140.27 58.5976C138.394 57.0517 136.469 55.4575 134.593 53.9117C134.16 53.5735 133.631 53.2837 133.006 53.0905C138.634 58.7908 142.53 65.5056 145.417 72.5585C142.482 74.4909 139.692 76.3749 136.999 78.1623C134.786 73.9595 132.333 69.3219 129.927 64.7327C129.687 64.8293 129.446 64.9259 129.206 65.0225C129.735 67.7278 130.264 70.433 130.793 73.1866C132.525 81.6888 134.257 90.1426 135.94 98.6448C136.085 99.2728 135.892 100.336 135.459 100.625C130.889 103.572 128.244 107.92 126.32 112.847C123.626 119.707 122.664 126.905 122.231 134.199C122.183 134.972 122.086 135.745 121.99 136.905C118.864 137.146 115.737 137.484 112.61 137.629C100.44 138.112 88.5584 136.76 77.2061 132.026C74.4161 130.866 74.4642 130.818 75.0895 127.871C75.5705 125.697 75.3781 122.944 76.6288 121.494C77.8795 120.045 80.6214 119.852 82.6898 119.127C82.8341 119.079 83.0266 118.982 83.6038 118.789C81.9202 117.726 80.4771 116.712 78.9378 115.891C77.9757 115.359 77.6871 114.78 77.9276 113.572C81.2467 97.4854 84.4697 81.3989 87.7407 65.3124C87.7407 65.2157 87.7407 65.0708 87.6926 64.781C87.2597 65.1674 86.9229 65.5056 86.5862 65.8437C85.8647 65.4573 86.2495 51.6895 87.0191 50.6268C85.1431 50.5784 84.3735 51.448 84.614 53.332C84.7583 54.5397 84.5659 55.7474 84.6621 56.9551C85.3836 68.1142 83.6038 78.9835 81.2467 89.8528C78.3605 103.089 75.8111 116.374 73.0692 129.61C72.7324 131.156 73.1173 131.977 74.5123 132.46C77.3985 133.571 80.2847 134.779 83.219 135.794C84.181 136.132 84.6621 136.47 84.6621 137.629C84.614 150.962 84.6621 164.247 84.614 177.58C84.5659 182.507 80.8619 186.42 76.0516 186.952C71.4337 187.483 67.0081 184.536 65.7575 179.995C65.3726 178.643 65.3245 177.145 65.3245 175.696C65.2764 153.378 65.3245 131.108 65.3245 108.789C65.3245 108.017 65.3245 107.244 65.3245 106.326C64.0738 106.326 63.0156 106.326 61.6687 106.326C61.6687 107.147 61.6687 107.92 61.6687 108.693C61.6687 131.301 61.6687 153.861 61.6687 176.469C61.6687 181.928 58.7825 185.696 53.924 186.758C48.4402 187.966 42.9084 183.957 42.4754 178.353C42.2349 175.599 42.3311 172.798 42.3792 170.044C42.3792 169.609 42.7159 168.885 43.0527 168.788C45.554 168.015 46.3718 165.793 47.4782 163.861C48.0554 162.943 48.5365 161.928 49.2099 160.672Z" fill="#009A3A"/>
<path d="M164.081 106.374C167.977 105.456 167.977 105.456 169.709 108.934C172.884 115.408 174.086 122.412 174.616 129.514C174.952 133.716 174.952 137.919 175 142.17C175.048 145.165 173.221 147.146 170.671 147.098C168.122 147.049 166.39 145.069 166.438 142.074C166.486 133.91 166.197 125.794 163.937 117.92C163.792 117.485 163.648 117.002 163.167 116.567C163.167 131.253 163.167 145.89 163.167 160.672C162.109 160.672 161.291 160.672 160.329 160.672C160.473 161.01 160.521 161.3 160.666 161.397C163.023 163.474 163.263 166.179 163.119 169.126C162.974 172.073 163.119 175.02 163.071 177.966C163.023 182.121 160.425 185.019 156.721 184.971C153.017 184.923 150.564 182.169 150.564 178.015C150.564 169.464 150.564 160.914 150.564 152.218C149.794 152.218 149.121 152.218 148.159 152.218C148.159 152.895 148.159 153.523 148.159 154.151C148.159 162.363 148.207 170.527 148.111 178.739C148.111 181.638 146.331 183.957 143.733 184.73C141.184 185.502 138.297 184.681 136.902 182.411C136.181 181.3 135.7 179.85 135.7 178.546C135.604 165.938 135.652 153.378 135.7 140.769C135.7 140.141 136.229 139.368 136.71 138.885C137.384 138.209 138.201 137.581 139.019 137.195C141.953 135.89 142.242 133.523 141.568 130.48C140.703 131.349 139.981 132.219 139.115 132.799C138.201 133.378 137.095 133.716 135.7 134.296C135.7 128.113 135.7 122.267 135.7 116.422C135.459 116.374 135.219 116.374 134.978 116.326C134.305 120.045 133.343 123.765 133.006 127.533C132.525 132.46 132.477 137.388 132.333 142.315C132.285 144.247 131.611 145.745 129.879 146.566C127.33 147.822 124.299 146.325 123.866 143.426C123.578 141.397 123.626 139.32 123.674 137.291C123.915 128.499 124.588 119.707 127.859 111.398C129.398 107.533 131.371 104.007 134.642 101.35C137.239 99.2728 139.885 98.355 143.204 100.094C147.389 102.268 151.815 101.93 156.048 99.9008C158.79 98.5965 162.542 99.3211 164.321 101.688C164.61 102.026 164.61 102.703 164.562 103.186C164.466 104.2 164.273 105.166 164.081 106.374Z" fill="#004800"/>
<path d="M52.9617 36.569C49.5464 36.8106 46.564 36.8106 43.6297 37.2454C39.2523 37.8734 35.4521 39.9506 32.133 42.8491C30.0645 44.6365 29.0544 46.9069 29.1506 49.7088C29.5354 60.9162 29.824 72.1237 30.2088 83.3311C30.4012 88.5967 34.5862 91.8333 39.8295 90.8672C40.07 90.8189 40.3105 90.8189 40.6473 90.8189C41.2726 96.0361 40.5029 100.915 37.2319 105.166C34.9711 108.113 31.7962 109.466 28.1885 109.804C18.9526 110.673 6.6863 107.727 1.97217 94.8767C0.192344 90.0459 -0.336793 85.0219 0.192344 79.9496C1.82786 63.2833 8.89905 49.2257 20.8287 37.7767C28.5733 30.3373 37.8573 29.9992 47.4779 33.6706C48.8248 34.202 50.0755 34.9266 51.3262 35.6029C51.8072 35.7478 52.2402 36.086 52.9617 36.569Z" fill="#004800"/>
<path d="M51.2782 48.0181C48.1996 48.936 46.7565 51.1098 45.5058 53.4769C42.812 58.4526 40.022 63.3317 37.3282 68.3558C36.8472 69.2736 36.751 70.3847 36.5105 71.4475C36.7029 71.5441 36.8953 71.5924 37.0877 71.689C37.4244 71.2059 37.7611 70.7229 38.0979 70.1915C41.3208 64.3945 44.4956 58.5976 47.7185 52.8489C49.4503 49.7572 52.6732 48.5978 55.7037 49.8538C59.2152 51.3031 60.6102 55.2643 58.7823 58.7425C56.4734 63.0419 54.0682 67.293 51.7111 71.5441C49.1135 76.23 46.516 80.9158 43.9184 85.6017C42.1386 88.79 39.541 90.046 36.5105 89.3214C33.5762 88.6451 31.8444 86.1331 31.7482 82.51C31.4115 71.9789 31.171 61.4477 30.7381 50.9166C30.5456 47.4384 31.7001 44.9264 34.442 42.9941C37.232 41.0135 40.2144 39.5642 43.5336 38.7913C44.4956 38.5498 45.2172 38.5981 45.8425 39.5642C47.5261 42.3661 49.3541 45.023 51.2782 48.0181Z" fill="#009A3A"/>
<path d="M91.7815 22.7048C91.7815 13.3813 99.2375 5.797 108.521 5.797C117.805 5.797 125.358 13.2847 125.358 22.6082C125.406 32.0282 117.95 39.6125 108.521 39.6125C99.2856 39.6125 91.7815 32.0765 91.7815 22.7048Z" fill="#009A3A"/>
<path d="M91.589 136.18C96.8804 136.663 101.979 137.146 107.223 137.629C107.271 138.112 107.319 138.644 107.319 139.175C107.319 151.639 107.367 164.102 107.319 176.565C107.319 182.169 102.99 185.889 97.7944 184.826C94.4752 184.15 91.6852 181.3 91.6371 177.725C91.4928 163.861 91.589 150.044 91.589 136.18Z" fill="#009A3A"/>
<path d="M109.868 137.533C114.005 137.243 117.95 136.953 122.135 136.615C122.135 138.451 122.183 140.238 122.135 142.025C122.086 144.344 122.856 146.228 124.78 147.629C125.165 147.919 125.454 148.547 125.55 149.078C126.031 152.122 125.454 154.537 122.135 155.745C120.451 156.373 118.96 157.581 116.939 158.788C118.815 158.981 120.21 159.03 121.509 159.32C122.135 159.465 122.808 159.899 123.145 160.382C124.925 162.991 125.983 165.841 125.646 169.174C125.406 171.638 125.646 174.102 125.598 176.566C125.502 181.445 122.231 184.923 117.757 184.923C113.235 184.923 109.916 181.348 109.916 176.421C109.916 164.005 109.916 151.59 109.916 139.175C109.868 138.74 109.868 138.209 109.868 137.533Z" fill="#009A3A"/>
<path d="M149.361 99.9008C141.713 99.9008 135.652 93.814 135.652 86.133C135.652 78.5004 141.857 72.317 149.409 72.3653C156.865 72.4136 163.022 78.5487 163.071 86.0847C163.119 93.6691 156.961 99.9008 149.361 99.9008Z" fill="#004800"/>
</g>
<defs>
<clipPath id="clip0_355_738">
<rect width="175" height="187" fill="white"/>
</clipPath>
</defs>
</svg>
