<svg width="209" height="146" viewBox="0 0 209 146" fill="none" xmlns="http://www.w3.org/2000/svg">
<g clip-path="url(#clip0_355_809)">
<path d="M53.2659 49.8443C53.2659 47.275 53.2659 44.8984 53.2659 42.3291C79.74 42.3291 106.214 42.3291 132.942 42.3291C132.942 44.77 132.942 47.1465 132.942 49.7158C135.545 49.7158 137.894 49.7158 140.497 49.7158C140.497 47.275 140.497 44.8984 140.497 42.2649C155.734 42.2649 170.781 42.2649 186.018 42.2649C185.637 42.7145 185.383 43.0357 185.065 43.3568C176.939 51.3216 174.717 62.0484 179.288 72.6468C188.748 94.8069 198.334 116.967 207.857 139.127C208.048 139.577 208.238 140.026 208.429 140.476C209.825 143.945 208.492 146 204.873 146.064C202.588 146.064 200.302 146.064 197.953 146.064C186.78 146.064 175.606 146 164.432 146.129C162.654 146.129 161.829 145.615 161.194 143.945C151.163 118.444 141.069 93.0084 131.038 67.5082C126.276 55.4325 118.15 49.9085 105.262 49.9085C88.8187 49.9085 72.312 49.9085 55.8688 49.9085C55.0435 49.8443 54.2182 49.8443 53.2659 49.8443Z" fill="#004800"/>
<path d="M0 34.3C0 27.941 0 21.7105 0 15.3515C49.3931 15.3515 98.6592 15.3515 148.116 15.3515C148.116 19.0769 148.116 22.7382 148.116 26.5921C150.655 26.5921 153.068 26.5921 155.734 26.5921C155.734 22.9309 155.734 19.2054 155.734 15.3515C158.337 15.3515 160.686 15.3515 163.289 15.3515C163.289 19.0769 163.289 22.7382 163.289 26.5921C165.956 26.5921 168.368 26.5921 170.908 26.5921C170.908 22.8666 170.908 19.2054 170.908 15.3515C173.511 15.3515 175.86 15.3515 178.526 15.3515C178.526 19.0769 178.526 22.8024 178.526 26.5921C181.129 26.5921 183.478 26.5921 186.081 26.5921C186.081 22.8666 186.081 19.1412 186.081 15.2872C189.954 15.2872 193.573 15.2872 197.382 15.2872C197.382 21.5178 197.382 27.7483 197.382 34.2358C131.736 34.3 65.9632 34.3 0 34.3Z" fill="#009A3A"/>
<path d="M128.244 80.6115C121.007 80.6115 114.404 80.6115 107.738 80.6115C100.754 80.6115 93.8341 80.6757 86.8505 80.6115C81.0097 80.5473 77.2005 76.3722 77.7084 70.527C78.0893 66.2235 78.7242 61.9841 79.2321 57.6163C88.6282 57.6163 97.8973 57.6163 107.484 57.6163C105.008 63.7826 100.754 67.5723 94.2151 69.1781C94.6595 71.619 95.1674 73.9956 95.6118 76.3722C103.23 75.7941 109.896 70.0774 115.166 59.5433C123.737 63.7826 124.371 72.9036 128.244 80.6115Z" fill="#004800"/>
<path d="M0.0633774 42.2649C15.1099 42.2649 30.2198 42.2649 45.3933 42.2649C45.3933 44.77 45.3933 47.2108 45.3933 49.7801C44.8854 49.7801 44.441 49.8443 43.9331 49.8443C31.934 49.8443 19.8714 49.7801 7.87231 49.9085C3.99959 49.9085 -0.254059 46.5042 0.0633774 42.2649Z" fill="#009A3A"/>
<path d="M3.74585 7.38669C3.74585 4.88163 3.74585 2.56927 3.74585 0.064209C6.15836 0.064209 8.57088 0.064209 11.1104 0.064209C11.1104 2.37657 11.1104 4.8174 11.1104 7.38669C8.76134 7.38669 6.34883 7.38669 3.74585 7.38669Z" fill="#009A3A"/>
<path d="M186.081 0C186.081 2.50506 186.081 4.88165 186.081 7.38671C183.605 7.38671 181.193 7.38671 178.717 7.38671C178.717 4.94589 178.717 2.56929 178.717 0C181.066 0 183.478 0 186.081 0Z" fill="#009A3A"/>
</g>
<defs>
<clipPath id="clip0_355_809">
<rect width="209" height="146" fill="white"/>
</clipPath>
</defs>
</svg>
