<svg width="84" height="89" viewBox="0 0 84 89" fill="none" xmlns="http://www.w3.org/2000/svg">
<g clip-path="url(#clip0_472_111)">
<path d="M31.7416 0.134521C32.2216 0.270776 32.7244 0.384322 33.2044 0.543287C37.1131 1.815 39.4902 5.65285 38.896 9.69508C38.3245 13.6465 34.8273 16.7122 30.8044 16.7803C26.7129 16.8712 23.1472 14.0098 22.37 10.013C21.5014 5.58472 24.45 1.22456 28.953 0.293486C29.1358 0.248067 29.3187 0.17994 29.5244 0.134521C30.2558 0.134521 30.9873 0.134521 31.7416 0.134521Z" fill="#009A3A"/>
<path d="M23.787 75.6653C22.6442 75.847 21.6841 76.0059 20.587 76.1876C20.5641 75.8243 20.5413 75.529 20.5413 75.2338C20.5413 71.237 20.5184 67.2402 20.5641 63.2434C20.5641 62.7665 20.8156 62.2215 21.1356 61.8581C21.9584 60.8816 22.8956 60.0187 23.6956 58.9286C22.6899 59.2011 21.6841 59.4737 20.5413 59.7916C20.5413 59.4055 20.5413 59.1103 20.5413 58.8151C20.5413 53.8872 20.5413 48.9593 20.5413 44.0314C20.5413 43.4864 20.6556 43.0776 21.0898 42.7143C21.4556 42.4191 21.707 41.9649 21.9356 41.5561C24.2213 37.5139 26.4842 33.449 28.7471 29.4067C30.1185 26.9541 29.5014 24.9557 27.0099 23.684C26.8271 23.5932 26.6442 23.298 26.6214 23.0709C26.4613 21.7537 26.3699 20.4366 26.2328 19.0286C26.4614 19.0286 26.7585 19.0286 27.0785 19.0286C27.4671 19.0286 27.8785 19.0059 28.2671 19.0286C33.2957 19.2103 38.2787 19.1195 43.1016 17.439C43.1473 17.4163 43.2159 17.4163 43.2616 17.3936C44.3816 17.0302 45.2045 17.2119 46.1873 18.1203C49.5702 21.345 54.9875 21.0952 58.2561 17.7115C58.7361 17.2119 59.1475 17.1438 59.8104 17.2346C61.4333 17.439 62.4161 18.0976 62.4161 19.8462C62.4161 20.3685 62.6447 20.8908 62.7819 21.5721C63.1933 21.0725 63.5133 20.6637 63.8333 20.2549C64.1533 19.8462 64.4505 19.4601 64.8162 18.9832C67.3305 20.2095 69.6391 21.6856 71.422 23.8203C72.3591 24.933 72.062 26.7043 70.9648 27.6581C69.8448 28.6346 68.2219 28.6346 67.0562 27.6808C66.1648 26.9541 65.2505 26.2047 64.359 25.478C64.1533 25.3191 63.9019 25.1828 63.6047 25.092C66.2791 27.7717 68.1305 30.9282 69.502 34.2438C68.1076 35.1521 66.7819 36.0378 65.5019 36.878C64.4505 34.9023 63.2847 32.7223 62.1419 30.5649C62.0276 30.6103 61.9133 30.6557 61.799 30.7011C62.0504 31.9729 62.3019 33.2446 62.5533 34.539C63.3762 38.5358 64.199 42.5099 64.999 46.5067C65.0676 46.8019 64.9762 47.3015 64.7705 47.4378C62.599 48.8231 61.3418 50.8669 60.4275 53.1832C59.1475 56.4079 58.6904 59.7916 58.4847 63.2207C58.4618 63.584 58.4161 63.9474 58.3704 64.4924C56.8846 64.6059 55.3989 64.7649 53.9132 64.833C48.1302 65.0601 42.4844 64.4243 37.0901 62.1988C35.7643 61.6537 35.7872 61.631 36.0843 60.2458C36.3129 59.2239 36.2215 57.9294 36.8158 57.2482C37.4101 56.5669 38.7129 56.4761 39.6958 56.1354C39.7644 56.1127 39.8558 56.0673 40.1301 55.9764C39.3301 55.4768 38.6444 55 37.9129 54.6139C37.4558 54.3641 37.3186 54.0916 37.4329 53.5239C39.0101 45.9617 40.5415 38.3996 42.0959 30.8374C42.0959 30.792 42.0959 30.7239 42.073 30.5876C41.8673 30.7693 41.7073 30.9282 41.5473 31.0872C41.2044 30.9055 41.3873 24.4334 41.753 23.9338C40.8616 23.9111 40.4958 24.3199 40.6101 25.2055C40.6787 25.7733 40.5873 26.341 40.633 26.9087C40.9758 32.1545 40.1301 37.2641 39.0101 42.3737C37.6386 48.596 36.4272 54.841 35.1243 61.0633C34.9643 61.79 35.1472 62.1761 35.8101 62.4031C37.1815 62.9255 38.5529 63.4932 39.9473 63.9701C40.4044 64.129 40.633 64.288 40.633 64.833C40.6101 71.1007 40.633 77.3458 40.6101 83.6135C40.5873 85.9298 38.8272 87.7693 36.5415 88.0191C34.3472 88.2689 32.2443 86.8836 31.65 84.749C31.4671 84.1131 31.4443 83.4091 31.4443 82.7279C31.4214 72.2362 31.4443 61.7673 31.4443 51.2757C31.4443 50.9123 31.4443 50.549 31.4443 50.1175C30.85 50.1175 30.3471 50.1175 29.7071 50.1175C29.7071 50.5035 29.7071 50.8669 29.7071 51.2302C29.7071 61.8581 29.7071 72.4633 29.7071 83.0912C29.7071 85.6573 28.3357 87.4286 26.0271 87.9282C23.4213 88.496 20.7927 86.6111 20.587 83.9769C20.4727 82.6824 20.5184 81.3653 20.5413 80.0709C20.5413 79.8665 20.7013 79.5259 20.8613 79.4804C22.0499 79.1171 22.4384 78.0725 22.9642 77.1641C23.2384 76.7326 23.467 76.2557 23.787 75.6653Z" fill="#009A3A"/>
<path d="M78.3706 50.14C80.2221 49.7085 80.2221 49.7085 81.0449 51.3436C82.5535 54.3866 83.125 57.6794 83.3764 61.0177C83.5364 62.9934 83.5364 64.9691 83.5593 66.9675C83.5821 68.3755 82.7135 69.3065 81.5021 69.2838C80.2906 69.2611 79.4678 68.33 79.4906 66.9221C79.5135 63.0842 79.3763 59.2691 78.302 55.5675C78.2335 55.3631 78.1649 55.136 77.9363 54.9316C77.9363 61.8352 77.9363 68.7161 77.9363 75.6651C77.4335 75.6651 77.0449 75.6651 76.5877 75.6651C76.6563 75.8241 76.6792 75.9603 76.7477 76.0057C77.8678 76.9822 77.982 78.2539 77.9135 79.6392C77.8449 81.0245 77.9135 82.4097 77.8906 83.795C77.8678 85.748 76.6335 87.1105 74.8734 87.0878C73.1134 87.0651 71.9477 85.7707 71.9477 83.8177C71.9477 79.7982 71.9477 75.7786 71.9477 71.691C71.582 71.691 71.262 71.691 70.8048 71.691C70.8048 72.0089 70.8048 72.3041 70.8048 72.5994C70.8048 76.4599 70.8277 80.2978 70.7819 84.1583C70.7819 85.5209 69.9362 86.6109 68.7019 86.9743C67.4905 87.3376 66.119 86.9516 65.4562 85.8842C65.1133 85.3619 64.8847 84.6806 64.8847 84.0675C64.839 78.1404 64.8619 72.236 64.8847 66.3089C64.8847 66.0137 65.1362 65.6504 65.3647 65.4233C65.6847 65.1053 66.0733 64.8101 66.4619 64.6284C67.8562 64.0153 67.9933 62.9025 67.6733 61.4719C67.2619 61.8806 66.919 62.2894 66.5076 62.5619C66.0733 62.8344 65.5476 62.9934 64.8847 63.2659C64.8847 60.3591 64.8847 57.6113 64.8847 54.8635C64.7704 54.8408 64.6561 54.8408 64.5419 54.8181C64.2219 56.5667 63.7647 58.3153 63.6047 60.0866C63.3761 62.4029 63.3533 64.7193 63.2847 67.0356C63.2618 67.944 62.9418 68.648 62.119 69.034C60.9075 69.6245 59.4675 68.9205 59.2618 67.5579C59.1246 66.6041 59.1475 65.6276 59.1704 64.6739C59.2846 60.5408 59.6046 56.4077 61.159 52.5017C61.8904 50.685 62.8275 49.0272 64.3819 47.7782C65.6162 46.8017 66.8733 46.3703 68.4505 47.1878C70.4391 48.2097 72.542 48.0508 74.5534 47.097C75.8563 46.4838 77.6392 46.8245 78.4849 47.9372C78.6221 48.0962 78.6221 48.4141 78.5992 48.6412C78.5535 49.1181 78.4621 49.5723 78.3706 50.14Z" fill="#004800"/>
<path d="M25.5699 17.3253C23.947 17.4389 22.5298 17.4389 21.1355 17.6433C19.0555 17.9385 17.2498 18.915 15.6726 20.2775C14.6897 21.1178 14.2097 22.1851 14.2554 23.5022C14.4383 28.7708 14.5754 34.0393 14.7583 39.3078C14.8497 41.7831 16.8383 43.3046 19.3298 42.8505C19.4441 42.8277 19.5584 42.8277 19.7184 42.8277C20.0155 45.2803 19.6498 47.574 18.0955 49.5724C17.0212 50.9576 15.5126 51.5935 13.7983 51.7524C9.40966 52.1612 3.58101 50.776 1.34097 44.7353C0.495249 42.4644 0.243817 40.1026 0.495249 37.7182C1.2724 29.8835 4.63245 23.2751 10.3011 17.8931C13.9812 14.3959 18.3926 14.2369 22.9641 15.9628C23.6041 16.2126 24.1984 16.5532 24.7927 16.8712C25.0213 16.9393 25.227 17.0983 25.5699 17.3253Z" fill="#004800"/>
<path d="M24.7699 22.7075C23.307 23.1389 22.6213 24.1609 22.027 25.2736C20.747 27.6127 19.4212 29.9063 18.1412 32.268C17.9127 32.6995 17.8669 33.2218 17.7527 33.7214C17.8441 33.7668 17.9355 33.7895 18.0269 33.835C18.1869 33.6079 18.3469 33.3808 18.5069 33.131C20.0384 30.4059 21.547 27.6808 23.0784 24.9784C23.9013 23.525 25.4328 22.98 26.8728 23.5704C28.5414 24.2517 29.2042 26.1138 28.3357 27.7489C27.2385 29.77 26.0956 31.7684 24.9756 33.7668C23.7413 35.9696 22.507 38.1724 21.2727 40.3752C20.427 41.874 19.1927 42.4644 17.7527 42.1238C16.3583 41.8059 15.5355 40.625 15.4898 38.9218C15.3298 33.9712 15.2155 29.0206 15.0098 24.07C14.9183 22.435 15.4669 21.2541 16.7698 20.3457C18.0955 19.4146 19.5127 18.7334 21.0898 18.37C21.547 18.2565 21.8899 18.2792 22.187 18.7334C22.987 20.0505 23.8556 21.2995 24.7699 22.7075Z" fill="#009A3A"/>
<path d="M44.0159 10.8078C44.0159 6.42496 47.5588 2.85962 51.9703 2.85962C56.3818 2.85962 59.9704 6.37954 59.9704 10.7624C59.9932 15.1907 56.4503 18.756 51.9703 18.756C47.5816 18.756 44.0159 15.2134 44.0159 10.8078Z" fill="#009A3A"/>
<path d="M43.9246 64.1516C46.4389 64.3787 48.8618 64.6058 51.3533 64.8329C51.3761 65.06 51.399 65.3098 51.399 65.5596C51.399 71.4185 51.4218 77.2775 51.399 83.1365C51.399 85.7707 49.3418 87.5194 46.8732 87.0198C45.296 86.7018 43.9703 85.362 43.9475 83.6815C43.8789 77.164 43.9246 70.6691 43.9246 64.1516Z" fill="#009A3A"/>
<path d="M52.6104 64.7874C54.5761 64.6512 56.4504 64.5149 58.439 64.356C58.439 65.2189 58.4619 66.0591 58.439 66.8994C58.4161 67.9894 58.7819 68.8751 59.6962 69.5337C59.879 69.6699 60.0162 69.9651 60.0619 70.2149C60.2905 71.6456 60.0162 72.7811 58.439 73.3488C57.639 73.644 56.9304 74.2117 55.9704 74.7795C56.8618 74.8703 57.5247 74.893 58.1419 75.0293C58.439 75.0974 58.759 75.3018 58.919 75.5289C59.7647 76.7552 60.2676 78.095 60.1076 79.6619C59.9933 80.8201 60.1076 81.9783 60.0847 83.1364C60.039 85.4301 58.4847 87.0651 56.359 87.0651C54.2104 87.0651 52.6332 85.3847 52.6332 83.0683C52.6332 77.2321 52.6332 71.3958 52.6332 65.5595C52.6104 65.3552 52.6104 65.1054 52.6104 64.7874Z" fill="#009A3A"/>
<path d="M71.3764 47.0972C67.7421 47.0972 64.8621 44.2358 64.8621 40.6251C64.8621 37.037 67.8107 34.1303 71.3993 34.153C74.9422 34.1757 77.868 37.0597 77.8908 40.6024C77.9137 44.1677 74.9879 47.0972 71.3764 47.0972Z" fill="#004800"/>
</g>
<defs>
<clipPath id="clip0_472_111">
<rect width="83.1554" height="87.9072" fill="white" transform="translate(0.403809 0.134521)"/>
</clipPath>
</defs>
</svg>
