<svg width="89" height="86" viewBox="0 0 89 86" fill="none" xmlns="http://www.w3.org/2000/svg">
<path d="M46.707 85.3714C46.707 85.2756 46.707 85.0841 46.707 84.9883C46.707 71.2919 46.707 57.6913 46.707 43.9949C46.707 43.7076 46.8063 43.5161 47.1041 43.3245C52.2654 40.5469 57.7246 38.4398 63.5808 37.1946C66.9556 36.4284 70.4296 35.9495 73.9036 35.758C75.988 35.6622 78.0724 35.5664 80.1568 35.5664C81.9434 35.5664 83.0353 36.62 83.0353 38.2482C83.0353 39.0144 83.0353 39.6849 83.0353 40.4511C82.4397 40.5469 81.8442 40.5469 81.2486 40.6427C76.7821 41.3131 73.1095 45.0485 72.8118 49.4543C72.8118 49.8375 72.7125 50.3163 72.7125 50.6995C72.7125 53.8602 72.7125 57.1166 72.7125 60.2773C72.7125 64.6832 75.4917 68.4185 79.859 69.8552C80.3553 70.0468 80.8516 70.1426 81.3479 70.2383C81.8442 70.3341 82.3405 70.3341 82.936 70.4299C82.936 70.6215 82.936 70.7172 82.936 70.9088C82.936 71.675 82.936 72.4413 82.936 73.2075C82.8368 74.4526 81.7449 75.4104 80.4546 75.4104C77.9731 75.4104 75.591 75.602 73.1095 75.8893C67.4518 76.5597 61.8934 78.0922 56.732 80.3909C53.3573 81.8276 50.181 83.5516 47.1041 85.4672C46.9055 85.2756 46.8063 85.2756 46.707 85.3714Z" fill="#002200"/>
<path d="M41.4464 85.3714C40.5531 84.7967 39.6597 84.2221 38.7664 83.7432C33.8036 80.9656 28.6422 78.6669 23.183 77.2302C19.5105 76.2724 15.7387 75.602 11.8676 75.4104C10.5773 75.3146 9.28695 75.3146 7.9966 75.3146C6.40848 75.3146 5.31665 74.2611 5.31665 72.7286C5.31665 71.9624 5.31665 71.1961 5.31665 70.3341C6.01145 70.2383 6.607 70.2383 7.3018 70.1426C11.7684 69.3763 15.2424 65.7367 15.6394 61.3309C15.6394 61.0436 15.7387 60.7562 15.7387 60.3731C15.7387 57.0209 15.7387 53.7644 15.7387 50.4121C15.7387 45.719 12.4632 41.792 7.79809 40.7385C7.10329 40.5469 6.30923 40.5469 5.51517 40.4511C5.51517 40.3554 5.51517 40.2596 5.51517 40.1638C5.51517 39.4933 5.51517 38.8229 5.51517 38.1524C5.51517 36.62 6.607 35.5664 8.19512 35.5664C9.78324 35.5664 11.3714 35.5664 12.9595 35.6622C15.6394 35.758 18.2201 36.0453 20.9001 36.4284C25.9622 37.1946 30.9251 38.5356 35.5902 40.5469C37.5753 41.4089 39.5605 42.4625 41.4464 43.3245C41.7441 43.4203 41.7442 43.6118 41.7442 43.8992C41.7442 57.6913 41.7442 71.4835 41.7442 85.1798C41.5456 85.2756 41.5456 85.2756 41.4464 85.3714C41.5456 85.3714 41.5456 85.3714 41.4464 85.3714Z" fill="#002200"/>
<path d="M88.0978 60.9478C87.9986 61.2351 87.9986 61.4267 87.8993 61.714C87.2045 64.0127 85.1201 65.4494 82.5394 65.3536C80.1572 65.2578 78.1721 63.5338 77.775 61.2351C77.775 60.9478 77.6758 60.6604 77.6758 60.3731C77.6758 57.1166 77.6758 53.8601 77.6758 50.6037C77.6758 48.1134 79.3632 46.1978 81.7453 45.6232C84.6238 45.0485 87.403 46.8683 87.8993 49.6459C87.8993 49.7417 87.8993 49.8374 87.9986 49.8374C88.0978 53.477 88.0978 57.2124 88.0978 60.9478Z" fill="#004800"/>
<path d="M45.5159 30.4904C45.7144 30.4904 45.9129 30.4904 46.1114 30.4904C47.9973 30.4904 49.7839 30.4904 51.6698 30.6819C54.052 30.7777 57.8238 31.927 59.6104 32.9806C59.0149 33.1722 58.5186 33.2679 58.0223 33.4595C53.3572 34.8004 48.7914 36.6202 44.5233 39.0147C44.2255 39.2062 44.027 39.2062 43.7292 39.0147C39.0641 36.4286 34.2005 34.5131 29.0391 33.1722C28.9399 33.1722 28.8406 33.0764 28.7413 33.0764C28.7413 33.0764 28.7413 33.0764 28.6421 32.9806C30.1309 32.2144 31.7191 31.6397 33.4064 31.2566C35.2923 30.7777 37.2775 30.5861 39.1634 30.5861C40.3545 30.5861 41.5456 30.5861 42.6374 30.5861C34.1012 29.8199 28.0465 22.5407 28.5428 14.7826C29.2376 6.7372 36.0864 0.415793 44.3248 0.511572C52.2654 0.607351 58.8164 6.64142 59.5112 14.1122C60.4045 22.5407 53.9527 29.7241 45.5159 30.4904Z" fill="#009A3A"/>
<path d="M0.155518 55.3925C0.155518 53.7643 0.155518 52.136 0.155518 50.5078C0.155518 47.826 2.14067 45.7188 4.91988 45.4315C7.50057 45.2399 9.88275 46.964 10.379 49.55C10.4783 49.8373 10.4783 50.2204 10.4783 50.5078C10.4783 53.7643 10.4783 57.0207 10.4783 60.2772C10.4783 62.8632 8.69166 64.7788 6.21022 65.2577C3.13324 65.8324 0.254775 63.5337 0.155518 60.4688C0.155518 58.7448 0.155518 57.1165 0.155518 55.3925Z" fill="#004800"/>
</svg>
