<svg width="103" height="85" viewBox="0 0 103 85" fill="none" xmlns="http://www.w3.org/2000/svg">
<path d="M98.7807 56.273C96.1168 52.8782 93.3863 49.5267 90.8112 46.0455C88.9465 43.5157 86.3714 42.2616 83.3967 41.5264C83.2635 41.4832 83.1303 41.4399 82.8417 41.3534C87.3038 37.8289 89.5903 33.3747 89.1907 27.8393C88.9021 23.8392 87.1706 20.4444 84.1071 17.72C77.9801 12.2711 68.7009 12.4225 62.6627 17.8065C57.3127 22.5851 54.4934 33.872 63.7727 41.1804C62.4407 41.8075 60.9312 42.3264 59.6658 43.1697C58.4449 43.9914 57.3349 45.0509 56.4248 46.1969C53.6277 49.6349 50.9638 53.181 48.2555 56.6622C48.0335 56.9433 47.7893 57.2244 47.5007 57.5703C46.5684 56.7703 45.6582 55.9919 44.7702 55.1918C41.9509 52.7053 39.1538 50.197 36.268 47.7969C35.4244 47.105 34.3366 46.6293 33.2711 46.305C32.6051 46.0888 32.3165 45.8293 32.1167 45.2239C29.7636 38.3046 27.3883 31.4071 24.9908 24.4878C24.1916 22.1526 22.4379 20.9634 20.3956 21.3093C17.5319 21.8066 16.1555 24.1203 17.1101 26.8879C18.6418 31.3854 20.218 35.8613 21.7941 40.3588C22.8153 43.3211 23.8586 46.2617 24.8354 49.2457C24.9908 49.743 24.9908 50.37 24.8354 50.8673C23.9252 53.7648 24.6356 56.1865 26.7667 58.3704C29.8302 61.484 32.7605 64.7274 35.7352 67.9275C36.7119 68.987 37.6887 70.0465 38.7987 71.2574C38.3103 71.279 37.9995 71.3223 37.6887 71.3223C26.8999 71.3223 16.1111 71.3223 5.34456 71.3223C2.32547 71.3439 0.527344 69.6357 0.527344 66.7383C0.527344 46.2617 0.527344 25.8068 0.527344 5.33027C0.527344 2.41123 2.34767 0.638184 5.36676 0.638184C34.9582 0.638184 64.5275 0.638184 94.1189 0.638184C97.2268 0.638184 99.0027 2.38961 99.0027 5.39514C99.0027 22.0445 99.0027 38.6939 99.0027 55.3648C99.0027 55.6459 99.0027 55.927 99.0027 56.2081C98.9361 56.2297 98.8695 56.2514 98.7807 56.273ZM7.25368 66.695C12.3595 66.695 17.3099 66.695 22.3269 66.695C22.3269 65.4193 22.4379 64.1868 22.3047 62.9976C22.1715 61.7219 20.9727 60.5759 19.5964 60.5326C16.4219 60.4461 13.2474 60.4245 10.0952 60.5326C8.58563 60.5759 7.38688 61.8516 7.29808 63.2787C7.18709 64.3814 7.25368 65.4842 7.25368 66.695Z" fill="#009A3A"/>
<path d="M58.245 63.1921C56.8242 65.0084 55.3813 66.8031 53.9605 68.6194C51.563 71.7114 48.3886 72.8358 44.5925 71.906C43.3493 71.6033 42.084 70.7816 41.196 69.8735C37.289 65.8517 33.4929 61.7218 29.6747 57.6351C29.2529 57.181 28.7867 56.7702 28.3649 56.3161C27.033 54.9107 26.6778 52.8565 27.6324 51.2348C27.9875 50.6294 27.9875 50.1537 27.7656 49.5483C25.1017 41.8939 22.4822 34.2395 19.8405 26.5851C19.7517 26.3473 19.6629 26.1094 19.6185 25.8716C19.3965 25.0067 19.7517 24.358 20.6174 24.0985C21.4388 23.8607 22.0826 24.2283 22.349 25.0283C22.9483 26.6933 23.5255 28.3582 24.1027 30.0231C26.145 35.9477 28.1873 41.8723 30.2519 47.7752C30.3629 48.0996 30.496 48.4455 30.6514 48.8347C32.7826 48.4239 34.3365 49.3104 35.8238 50.6726C39.5311 54.089 43.3271 57.3973 47.0788 60.7487C47.3452 60.9866 47.6338 61.2244 47.9668 61.5055C48.2332 61.2028 48.4551 60.9434 48.6771 60.6623C52.1402 56.1864 55.5811 51.6889 59.1107 47.2563C60.7535 45.1805 62.9734 43.9697 65.7705 43.9697C70.9429 43.9913 76.1153 43.948 81.2877 43.9913C84.2623 44.0129 86.7265 45.1805 88.5468 47.4941C92.8312 52.8565 97.0935 58.2405 101.356 63.6245C103.376 66.176 103.043 69.5059 100.446 71.6249C96.8049 74.6088 93.1198 77.5495 89.4791 80.555C89.0796 80.8793 88.791 81.4415 88.6578 81.9605C88.347 83.1713 87.57 83.993 86.2825 84.1876C85.8829 84.2524 85.4833 84.2524 85.0615 84.2524C77.4472 84.2524 69.8551 84.2524 62.2408 84.2524C59.4659 84.2524 58.5114 83.3227 58.5114 80.6415C58.5114 75.2359 58.5114 69.8518 58.5114 64.4462C58.5114 64.0786 58.5114 63.6894 58.5114 63.3218C58.4004 63.2353 58.3338 63.2137 58.245 63.1921ZM88.6356 69.1167C89.8121 68.1653 90.8111 67.3652 91.8767 66.522C90.8111 65.203 89.8121 63.9489 88.6356 62.5002C88.6356 64.7922 88.6356 66.8247 88.6356 69.1167Z" fill="#004800"/>
</svg>
