<svg width="111" height="91" viewBox="0 0 111 91" fill="none" xmlns="http://www.w3.org/2000/svg">
<path d="M105.839 59.9301C102.97 56.2733 100.028 52.663 97.2543 48.913C95.2457 46.1879 92.4717 44.837 89.2674 44.045C89.1239 43.9985 88.9804 43.9519 88.6696 43.8587C93.4761 40.0621 95.9391 35.264 95.5087 29.3012C95.1978 24.9922 93.3326 21.3354 90.0326 18.4006C83.4326 12.5311 73.437 12.6941 66.9326 18.4938C61.1696 23.6413 58.1326 35.7997 68.1283 43.6724C66.6935 44.3478 65.0674 44.9068 63.7043 45.8152C62.3891 46.7003 61.1935 47.8416 60.213 49.0761C57.2 52.7795 54.3304 56.5994 51.413 60.3494C51.1739 60.6522 50.9109 60.955 50.6 61.3276C49.5957 60.4658 48.6152 59.6273 47.6587 58.7655C44.6217 56.087 41.6087 53.3851 38.5 50.7997C37.5913 50.0544 36.4196 49.5419 35.2717 49.1925C34.5543 48.9596 34.2435 48.6801 34.0283 48.028C31.4935 40.5745 28.9348 33.1444 26.3522 25.691C25.4913 23.1755 23.6022 21.8944 21.4022 22.2671C18.3174 22.8028 16.8348 25.295 17.863 28.2764C19.513 33.1211 21.2109 37.9425 22.9087 42.7873C24.0087 45.9783 25.1326 49.146 26.1848 52.3603C26.3522 52.896 26.3522 53.5714 26.1848 54.1071C25.2043 57.2283 25.9696 59.837 28.2652 62.1894C31.5652 65.5435 34.7217 69.0373 37.9261 72.4845C38.9783 73.6258 40.0304 74.7671 41.2261 76.0714C40.7 76.0947 40.3652 76.1413 40.0304 76.1413C28.4087 76.1413 16.787 76.1413 5.18913 76.1413C1.93696 76.1646 0 74.3245 0 71.2034C0 49.146 0 27.1118 0 5.05435C0 1.90994 1.96087 0 5.21304 0C37.0891 0 68.9413 0 100.817 0C104.165 0 106.078 1.88665 106.078 5.12422C106.078 23.059 106.078 40.9938 106.078 58.9519C106.078 59.2547 106.078 59.5575 106.078 59.8602C106.007 59.8835 105.935 59.9068 105.839 59.9301ZM7.24565 71.1568C12.7457 71.1568 18.0783 71.1568 23.4826 71.1568C23.4826 69.7826 23.6022 68.455 23.4587 67.1739C23.3152 65.7997 22.0239 64.5652 20.5413 64.5186C17.1217 64.4255 13.7022 64.4022 10.3065 64.5186C8.68043 64.5652 7.38913 65.9394 7.29348 67.4767C7.17391 68.6646 7.24565 69.8525 7.24565 71.1568Z" fill="#004800"/>
<path d="M62.1739 67.3836C60.6435 69.3401 59.0891 71.2733 57.5587 73.2299C54.9761 76.5606 51.5565 77.7718 47.4674 76.7702C46.1283 76.4442 44.7652 75.5591 43.8087 74.5808C39.6 70.2485 35.5109 65.7997 31.3978 61.3976C30.9435 60.9084 30.4413 60.4659 29.987 59.9768C28.5522 58.4628 28.1696 56.2501 29.1978 54.5032C29.5804 53.851 29.5804 53.3386 29.3413 52.6864C26.4717 44.441 23.65 36.1957 20.8044 27.9504C20.7087 27.6942 20.6131 27.4379 20.5652 27.1817C20.3261 26.2501 20.7087 25.5513 21.6413 25.2718C22.5261 25.0156 23.2196 25.4115 23.5065 26.2733C24.1522 28.0668 24.7739 29.8603 25.3957 31.6538C27.5957 38.0358 29.7957 44.4178 32.0196 50.7764C32.1391 51.1258 32.2826 51.4985 32.45 51.9178C34.7457 51.4752 36.4196 52.4302 38.0217 53.8976C42.0152 57.5777 46.1044 61.1414 50.1457 64.7516C50.4326 65.0078 50.7435 65.264 51.1022 65.5668C51.3891 65.2407 51.6283 64.9612 51.8674 64.6584C55.5978 59.837 59.3044 54.9923 63.1065 50.2174C64.8761 47.9814 67.2674 46.6771 70.2804 46.6771C75.8522 46.7004 81.4239 46.6538 86.9957 46.7004C90.2 46.7237 92.8543 47.9814 94.8152 50.4737C99.4304 56.2501 104.022 62.0497 108.613 67.8494C110.789 70.5979 110.43 74.1848 107.633 76.4674C103.711 79.6817 99.7413 82.8494 95.8196 86.087C95.3891 86.4364 95.0783 87.042 94.9348 87.601C94.6 88.9053 93.763 89.7904 92.3761 90.0001C91.9456 90.0699 91.5152 90.0699 91.0609 90.0699C82.8587 90.0699 74.6804 90.0699 66.4783 90.0699C63.4891 90.0699 62.4609 89.0684 62.4609 86.1802C62.4609 80.3572 62.4609 74.5575 62.4609 68.7345C62.4609 68.3386 62.4609 67.9193 62.4609 67.5233C62.3413 67.4302 62.2696 67.4069 62.1739 67.3836ZM94.9109 73.7656C96.1783 72.7407 97.2543 71.8789 98.4022 70.9706C97.2543 69.5497 96.1783 68.1988 94.9109 66.6383C94.9109 69.1072 94.9109 71.2966 94.9109 73.7656Z" fill="#009136"/>
<path d="M78.5304 44.1615C70.7348 44.1383 64.4935 37.9892 64.5174 30.3727C64.5413 22.8727 70.9261 16.7935 78.6739 16.8401C86.4218 16.8867 92.7109 23.0591 92.6391 30.5823C92.5913 38.1056 86.2783 44.1848 78.5304 44.1615Z" fill="#009136"/>
</svg>
