<svg width="87" height="87" viewBox="0 0 87 87" fill="none" xmlns="http://www.w3.org/2000/svg">
<g clip-path="url(#clip0_21_299)">
<path d="M46.0531 86.9999C46.0531 86.9017 46.0531 86.7053 46.0531 86.6071C46.0531 72.5654 46.0531 58.6218 46.0531 44.5801C46.0531 44.2855 46.1513 44.0891 46.4459 43.8927C51.552 41.0451 56.9526 38.8848 62.7461 37.6083C66.0847 36.8227 69.5215 36.3317 72.9583 36.1354C75.0204 36.0372 77.0824 35.939 79.1445 35.939C80.912 35.939 81.9922 37.0191 81.9922 38.6884C81.9922 39.474 81.9922 40.1613 81.9922 40.9469C81.403 41.0451 80.8138 41.0451 80.2247 41.1433C75.8059 41.8306 72.1727 45.6602 71.8782 50.1771C71.8782 50.5699 71.78 51.0609 71.78 51.4536C71.78 54.694 71.78 58.0326 71.78 61.2731C71.78 65.79 74.5294 69.6196 78.8499 71.0925C79.3409 71.2889 79.8319 71.3871 80.3229 71.4852C80.8138 71.5834 81.3048 71.5834 81.894 71.6816C81.894 71.878 81.894 71.9762 81.894 72.1726C81.894 72.9582 81.894 73.7437 81.894 74.5293C81.7958 75.8058 80.7156 76.7877 79.4391 76.7877C76.9843 76.7877 74.6276 76.9841 72.1727 77.2787C66.5757 77.9661 61.0768 79.5372 55.9707 81.8938C52.6321 83.3667 49.4899 85.1342 46.4459 87.0981C46.2495 86.9017 46.1513 86.9017 46.0531 86.9999Z" fill="#004800"/>
<path d="M40.8487 86.9999C39.965 86.4107 39.0812 85.8216 38.1975 85.3306C33.2878 82.483 28.1817 80.1263 22.781 78.6534C19.1478 77.6715 15.4165 76.9841 11.5869 76.7877C10.3104 76.6895 9.03384 76.6895 7.75732 76.6895C6.18621 76.6895 5.10608 75.6094 5.10608 74.0383C5.10608 73.2527 5.10608 72.4672 5.10608 71.5834C5.79344 71.4852 6.3826 71.4852 7.06996 71.387C11.4887 70.6015 14.9255 66.8701 15.3183 62.3532C15.3183 62.0586 15.4165 61.764 15.4165 61.3712C15.4165 57.9345 15.4165 54.5958 15.4165 51.1591C15.4165 46.3475 12.1761 42.3216 7.56093 41.2414C6.87357 41.0451 6.08802 41.0451 5.30247 40.9469C5.30247 40.8487 5.30247 40.7505 5.30247 40.6523C5.30247 39.9649 5.30247 39.2776 5.30247 38.5902C5.30247 37.0191 6.3826 35.939 7.95371 35.939C9.52482 35.939 11.0959 35.939 12.667 36.0372C15.3183 36.1354 17.8713 36.4299 20.5226 36.8227C25.5305 37.6083 30.4402 38.983 35.0553 41.0451C37.0192 41.9288 38.9831 43.0089 40.8487 43.8927C41.1433 43.9909 41.1433 44.1873 41.1433 44.4819C41.1433 58.6218 41.1433 72.7618 41.1433 86.8035C40.9469 86.9017 40.9469 86.9017 40.8487 86.9999C40.9469 86.9999 40.9469 86.9999 40.8487 86.9999Z" fill="#004800"/>
<path d="M87 61.9604C86.9018 62.255 86.9018 62.4514 86.8036 62.746C86.1162 65.1026 84.0541 66.5756 81.5011 66.4774C79.1444 66.3792 77.1805 64.6117 76.7878 62.255C76.7878 61.9604 76.6896 61.6658 76.6896 61.3713C76.6896 58.0327 76.6896 54.6941 76.6896 51.3555C76.6896 48.8024 78.3589 46.8385 80.7155 46.2494C83.5632 45.6602 86.3126 47.5259 86.8036 50.3735C86.8036 50.4717 86.8036 50.5699 86.9018 50.5699C87 54.3013 87 58.1309 87 61.9604Z" fill="#009136"/>
<path d="M44.8747 30.7346C45.0711 30.7346 45.2675 30.7346 45.4639 30.7346C47.3296 30.7346 49.0971 30.7346 50.9628 30.931C53.3194 31.0292 57.0508 32.2076 58.8183 33.2877C58.2291 33.4841 57.7382 33.5823 57.2472 33.7787C52.6321 35.1534 48.1151 37.0191 43.8928 39.4739C43.5982 39.6703 43.4018 39.6703 43.1072 39.4739C38.4921 36.8227 33.6806 34.8588 28.5745 33.4841C28.4763 33.4841 28.3781 33.3859 28.2799 33.3859C28.2799 33.3859 28.2799 33.3859 28.1817 33.2877C29.6546 32.5021 31.2258 31.913 32.8951 31.5202C34.7607 31.0292 36.7246 30.8328 38.5903 30.8328C39.7686 30.8328 40.947 30.8328 42.0271 30.8328C33.5824 30.0473 27.5926 22.5845 28.0835 14.6308C28.7709 6.3825 35.5463 -0.0983136 43.6964 -0.000119507C51.5519 0.0980746 58.0327 6.2843 58.7201 13.9434C59.6039 22.5845 53.2212 29.9491 44.8747 30.7346Z" fill="#009136"/>
<path d="M0 56.2651C0 54.5958 0 52.9265 0 51.2572C0 48.5078 1.96388 46.3475 4.71332 46.053C7.26637 45.8566 9.62302 47.6241 10.114 50.2753C10.2122 50.5699 10.2122 50.9627 10.2122 51.2572C10.2122 54.5958 10.2122 57.9344 10.2122 61.273C10.2122 63.9243 8.44469 65.8882 5.98984 66.3791C2.94582 66.9683 0.0981941 64.6116 0 61.4694C0 59.7019 0 58.0326 0 56.2651Z" fill="#009136"/>
</g>
<defs>
<clipPath id="clip0_21_299">
<rect width="87" height="87" fill="white"/>
</clipPath>
</defs>
</svg>
